PathFileType	3	(X/Y/Z)	D:\VICON_DB\Goncalves\Pilot01\09-03-2026\walking_01.trc
DataRate	CameraRate	NumFrames	NumMarkers	Units	OrigDataRate	OrigDataStartFrame	OrigNumFrames
200.0	200.0	6	34	mm	200.0	1357	1809	
Frame#	Time	LASI			RASI			LPSI			RPSI			LTHI			LTHAP			LTHAD			LKNE			LKNM			LTIB			LTIAP			LTIAD			LANK			LMED			LHEE			LTOE			LFMH			LSMH			LVMH			RTHI			RTHAP			RTHAD			RKNE			RKNM			RTIB			RTIAP			RTIAD			RANK			RMED			RHEE			RTOE			RFMH			RSMH			RVMH			
		X1	Y1	Z1	X2	Y2	Z2	X3	Y3	Z3	X4	Y4	Z4	X5	Y5	Z5	X6	Y6	Z6	X7	Y7	Z7	X8	Y8	Z8	X9	Y9	Z9	X10	Y10	Z10	X11	Y11	Z11	X12	Y12	Z12	X13	Y13	Z13	X14	Y14	Z14	X15	Y15	Z15	X16	Y16	Z16	X17	Y17	Z17	X18	Y18	Z18	X19	Y19	Z19	X20	Y20	Z20	X21	Y21	Z21	X22	Y22	Z22	X23	Y23	Z23	X24	Y24	Z24	X25	Y25	Z25	X26	Y26	Z26	X27	Y27	Z27	X28	Y28	Z28	X29	Y29	Z29	X30	Y30	Z30	X31	Y31	Z31	X32	Y32	Z32	X33	Y33	Z33	X34	Y34	Z34	
1357	6.78	75.194283	874.78851	-2751.2197	335.26727	892.15887	-2768.6035				257.44534	906.36316	-2557.7917	59.332443	660.99438	-2748.1677	44.071758	731.83569	-2725.8276	43.690838	594.02972	-2707.2969	64.17157	437.46246	-2664.8108				63.788815	296.14954	-2524.5308	107.71287	319.9371	-2625.4507	91.831451	250.7247	-2541.3401	105.638	149.31351	-2377.8				159.23085	182.69008	-2345.2917	135.68509	92.476738	-2434.0745	178.4897	41.910973	-2446.0593				102.66631	23.844511	-2423.9736	372.89618	620.91992	-2787.1816	357.01947	753.71149	-2796.0549	327.19485	667.28101	-2829.7849	341.26175	479.59213	-2762.009				350.36533	282.31223	-2773.0845	295.87741	341.3533	-2796.1445	290.90021	259.64145	-2801.5647	308.91986	49.705055	-2748.113				272.32739	49.247757	-2704.6606	275.78027	60.060059	-2837.8005	241.08601	42.604034	-2884.9883				316.41162	11.198931	-2882.8855
1358	6.785	75.252426	874.685	-2753.8491	335.28986	892.15887	-2772.0066				257.55893	906.59473	-2561.0078	59.069988	661.19269	-2752.293	44.108021	731.80341	-2729.1118	43.423695	593.91919	-2712.0005	63.761257	437.06021	-2671.1477				63.694382	297.17511	-2530.0264	107.18217	319.83575	-2631.5999	91.557564	251.62563	-2546.5344	106.11242	152.14235	-2381.896				159.97691	186.02216	-2350.2449	135.89368	94.021187	-2437.1655	178.61008	42.952007	-2448.1426				102.93549	25.300255	-2425.3704	373.25732	620.85455	-2789.6914	357.2822	753.66046	-2799.0081	327.59793	667.06671	-2832.5024	340.54703	479.16473	-2763.7676				350.4754	282.17874	-2774.2795	295.98907	341.16156	-2797.4497	290.94687	259.38693	-2802.4497	308.92343	49.72797	-2748.1956				272.36179	49.324825	-2704.7578	275.64432	60.063126	-2837.947	241.01279	42.536285	-2885.0417				316.35104	11.261924	-2882.9763
1359	6.79	75.263969	874.56787	-2756.4097	335.26813	892.15179	-2775.3508				257.65781	906.85986	-2564.1531	58.773834	661.41815	-2756.3918	44.114475	731.78271	-2732.3464	43.132187	593.82867	-2716.6885	63.339359	436.6861	-2677.5088				63.635906	298.22217	-2535.5823	106.69083	319.76334	-2637.7734	91.326569	252.55997	-2551.7988	106.66802	155.00739	-2386.0933				160.81267	189.32491	-2355.2932	136.12144	95.689323	-2440.4045	178.66896	44.120365	-2450.5129				103.16068	26.941793	-2426.9929	373.57425	620.79755	-2792.1223	357.51251	753.6087	-2801.8733	327.94949	666.87158	-2835.1248	339.96683	478.77634	-2765.4485				350.58688	282.04691	-2775.4009	296.11456	340.97372	-2798.7136	291.01364	259.13965	-2803.3057	308.92456	49.750858	-2748.269				272.38647	49.399742	-2704.8535	275.52225	60.063869	-2838.0823	240.94981	42.472942	-2885.0908				316.28168	11.333249	-2883.071
1360	6.795	75.23613	874.44189	-2758.9058	335.20728	892.14465	-2778.6331				257.74576	907.16229	-2567.2253	58.452095	661.6759	-2760.4644	44.096088	731.77832	-2735.5374	42.818939	593.7652	-2721.3613	62.904938	436.3476	-2683.8872				63.617794	299.29071	-2541.1912	106.24052	319.72186	-2643.9636	91.140739	253.52573	-2557.1287	107.30732	157.89659	-2390.3909				161.7417	192.57814	-2360.4319	136.36237	97.476715	-2443.8103	178.65149	45.405441	-2453.1982				103.32671	28.764263	-2428.8711	373.84225	620.74982	-2794.4746	357.70786	753.55688	-2804.6519	328.246	666.69598	-2837.6548	339.63681	478.4744	-2767.0632				350.7009	281.91794	-2776.4434	296.25687	340.79105	-2799.9368	291.10303	258.90146	-2804.134	308.92227	49.773937	-2748.334				272.39838	49.473244	-2704.9468	275.41385	60.061367	-2838.2056	240.89648	42.41304	-2885.136				316.20798	11.408262	-2883.166
1361	6.8	75.176384	874.31256	-2761.3411	335.11325	892.14337	-2781.8513				257.8269	907.50549	-2570.2239	58.112663	661.97131	-2764.5112	44.057713	731.79498	-2738.6885	42.486042	593.73596	-2726.0193	62.457134	436.05197	-2690.2747				63.643517	300.3793	-2546.8459	105.83161	319.71283	-2650.1628	91.001823	254.51932	-2562.521	108.03136	160.79445	-2394.7896				162.76631	195.75871	-2365.657	136.61003	99.374481	-2447.4014	178.54239	46.792324	-2456.2251				103.41808	30.757177	-2431.0381	374.05875	620.71112	-2796.748	357.86642	753.50507	-2807.3474	328.4856	666.53882	-2840.0964	339.67654	478.30984	-2768.626				350.81705	281.79306	-2777.4062	296.4166	340.61453	-2801.1179	291.21542	258.67368	-2804.937	308.91574	49.797485	-2748.3899				272.3959	49.546116	-2705.0354	275.31812	60.055111	-2838.3164	240.85191	42.35577	-2885.178				316.13467	11.482141	-2883.2573
1362	6.805	75.092308	874.18549	-2763.7202	334.99234	892.1524	-2785.002				257.90323	907.89087	-2573.1479	57.762997	662.30951	-2768.5305	44.003819	731.83813	-2741.8044	42.13501	593.74774	-2730.6614	61.995247	435.80563	-2696.6621				63.715286	301.48462	-2552.5415	105.46268	319.73749	-2656.3669	90.911118	255.53531	-2567.9722	108.83912	163.68227	-2399.293				163.88725	198.8409	-2370.9656	136.85794	101.36935	-2451.1978	178.32683	48.262413	-2459.6184				103.41975	32.90461	-2433.5264	374.22321	620.68054	-2798.9453	357.98727	753.45239	-2809.9617	328.668	666.39801	-2842.4536	340.14038	478.30923	-2770.1477				350.93393	281.67377	-2778.2913	296.59201	340.4454	-2802.2571	291.34875	258.45752	-2805.7148	308.90433	49.821873	-2748.4385				272.37836	49.619041	-2705.1204	275.23398	60.044914	-2838.4165	240.81494	42.300507	-2885.2175				316.06531	11.551208	-2883.3425
